<svg width="20" height="20" viewBox="0 0 20 20" fill="none" xmlns="http://www.w3.org/2000/svg">
<path d="M17.3082 16.2743C17.3082 16.5743 17.2415 16.8827 17.0998 17.1827C16.9582 17.4827 16.7748 17.766 16.5332 18.0327C16.1248 18.4827 15.6748 18.8077 15.1665 19.016C14.6665 19.2244 14.1248 19.3327 13.5415 19.3327C12.6915 19.3327 11.7832 19.1327 10.8248 18.7244C9.8665 18.316 8.90817 17.766 7.95817 17.0744C6.99984 16.3744 6.0915 15.5993 5.22484 14.741C4.3665 13.8743 3.5915 12.966 2.89984 12.016C2.2165 11.066 1.6665 10.116 1.2665 9.17435C0.866504 8.22435 0.666504 7.31602 0.666504 6.44935C0.666504 5.88268 0.766504 5.34102 0.966504 4.84102C1.1665 4.33268 1.48317 3.86602 1.92484 3.44935C2.45817 2.92435 3.0415 2.66602 3.65817 2.66602C3.8915 2.66602 4.12484 2.71602 4.33317 2.81602C4.54984 2.91602 4.7415 3.06602 4.8915 3.28268L6.82484 6.00768C6.97484 6.21602 7.08317 6.40768 7.15817 6.59102C7.23317 6.76602 7.27484 6.94102 7.27484 7.09935C7.27484 7.29935 7.2165 7.49935 7.09984 7.69102C6.9915 7.88268 6.83317 8.08268 6.63317 8.28268L5.99984 8.94102C5.90817 9.03268 5.8665 9.14102 5.8665 9.27435C5.8665 9.34102 5.87484 9.39935 5.8915 9.46602C5.9165 9.53268 5.9415 9.58268 5.95817 9.63268C6.10817 9.90768 6.3665 10.266 6.73317 10.6993C7.10817 11.1327 7.50817 11.5743 7.9415 12.016C8.3915 12.4577 8.82484 12.866 9.2665 13.241C9.69984 13.6077 10.0582 13.8577 10.3415 14.0077C10.3832 14.0243 10.4332 14.0493 10.4915 14.0743C10.5582 14.0993 10.6248 14.1077 10.6998 14.1077C10.8415 14.1077 10.9498 14.0577 11.0415 13.966L11.6748 13.341C11.8832 13.1327 12.0832 12.9743 12.2748 12.8743C12.4665 12.7577 12.6582 12.6993 12.8665 12.6993C13.0248 12.6993 13.1915 12.7327 13.3748 12.8077C13.5582 12.8827 13.7498 12.991 13.9582 13.1327L16.7165 15.091C16.9332 15.241 17.0832 15.416 17.1748 15.6243C17.2582 15.8327 17.3082 16.041 17.3082 16.2743Z" stroke="#282560" stroke-width="1.2" stroke-miterlimit="10"/>
<path d="M14.4167 8.4987C14.4167 7.9987 14.025 7.23203 13.4417 6.60703C12.9083 6.03203 12.2 5.58203 11.5 5.58203" stroke="#282560" stroke-width="1.2" stroke-linecap="round" stroke-linejoin="round"/>
<path d="M17.3333 8.49935C17.3333 5.27435 14.725 2.66602 11.5 2.66602" stroke="#282560" stroke-width="1.2" stroke-linecap="round" stroke-linejoin="round"/>
</svg>
